<mxfile host="www.draw.io" modified="2020-03-10T15:36:54.790Z" agent="Mozilla/5.0 (Windows NT 10.0; Win64; x64) AppleWebKit/537.36 (KHTML, like Gecko) Chrome/80.0.3987.132 Safari/537.36" etag="sgPcyK-UBq_Avdle6VNx" version="12.8.2" type="github">
  <diagram id="-Knro7iIvr_-B3o6s4ao" name="第 1 页">
    <mxGraphModel dx="1169" dy="646" grid="1" gridSize="10" guides="1" tooltips="1" connect="1" arrows="1" fold="1" page="1" pageScale="1" pageWidth="827" pageHeight="1169" math="0" shadow="0">
      <root>
        <mxCell id="0" />
        <mxCell id="1" parent="0" />
        <mxCell id="NI37rxGPZ0Lae22K_Qjg-2" style="edgeStyle=orthogonalEdgeStyle;rounded=0;orthogonalLoop=1;jettySize=auto;html=1;exitX=1;exitY=0.5;exitDx=0;exitDy=0;entryX=0;entryY=0.5;entryDx=0;entryDy=0;" edge="1" parent="1" source="cHLyzzWJP-8gGwPEuMyj-1" target="cHLyzzWJP-8gGwPEuMyj-6">
          <mxGeometry relative="1" as="geometry" />
        </mxCell>
        <mxCell id="cHLyzzWJP-8gGwPEuMyj-1" value="&lt;font color=&quot;#ffffff&quot; style=&quot;font-size: 18px&quot;&gt;AssetManager&lt;/font&gt;" style="rounded=1;whiteSpace=wrap;html=1;fillColor=#3399FF;strokeColor=#999999;" parent="1" vertex="1">
          <mxGeometry x="40" y="370" width="140" height="60" as="geometry" />
        </mxCell>
        <mxCell id="NI37rxGPZ0Lae22K_Qjg-6" style="edgeStyle=orthogonalEdgeStyle;rounded=0;orthogonalLoop=1;jettySize=auto;html=1;exitX=1;exitY=0.5;exitDx=0;exitDy=0;entryX=0;entryY=0.5;entryDx=0;entryDy=0;" edge="1" parent="1" source="cHLyzzWJP-8gGwPEuMyj-2" target="NI37rxGPZ0Lae22K_Qjg-5">
          <mxGeometry relative="1" as="geometry" />
        </mxCell>
        <mxCell id="NI37rxGPZ0Lae22K_Qjg-7" style="edgeStyle=orthogonalEdgeStyle;rounded=0;orthogonalLoop=1;jettySize=auto;html=1;entryX=0.36;entryY=0.011;entryDx=0;entryDy=0;entryPerimeter=0;exitX=0.36;exitY=1.017;exitDx=0;exitDy=0;exitPerimeter=0;" edge="1" parent="1" source="cHLyzzWJP-8gGwPEuMyj-2" target="cHLyzzWJP-8gGwPEuMyj-6">
          <mxGeometry relative="1" as="geometry" />
        </mxCell>
        <mxCell id="cHLyzzWJP-8gGwPEuMyj-2" value="&lt;font color=&quot;#ffffff&quot;&gt;&lt;font style=&quot;font-size: 18px&quot;&gt;MonoHook&lt;/font&gt;&lt;br&gt;&lt;/font&gt;" style="rounded=1;whiteSpace=wrap;html=1;fillColor=#EA6B66;strokeColor=#999999;" parent="1" vertex="1">
          <mxGeometry x="224" y="270" width="140" height="60" as="geometry" />
        </mxCell>
        <mxCell id="NI37rxGPZ0Lae22K_Qjg-4" style="edgeStyle=orthogonalEdgeStyle;rounded=0;orthogonalLoop=1;jettySize=auto;html=1;exitX=1;exitY=0.5;exitDx=0;exitDy=0;entryX=0;entryY=0.5;entryDx=0;entryDy=0;" edge="1" parent="1" source="cHLyzzWJP-8gGwPEuMyj-4" target="cHLyzzWJP-8gGwPEuMyj-2">
          <mxGeometry relative="1" as="geometry" />
        </mxCell>
        <mxCell id="cHLyzzWJP-8gGwPEuMyj-4" value="&lt;font color=&quot;#ffffff&quot;&gt;&lt;font style=&quot;font-size: 18px&quot;&gt;AssetProfiler&lt;/font&gt;&lt;br&gt;&lt;/font&gt;" style="rounded=1;whiteSpace=wrap;html=1;fillColor=#EA6B66;strokeColor=#999999;" parent="1" vertex="1">
          <mxGeometry x="40" y="270" width="140" height="60" as="geometry" />
        </mxCell>
        <mxCell id="NI37rxGPZ0Lae22K_Qjg-3" style="edgeStyle=orthogonalEdgeStyle;rounded=0;orthogonalLoop=1;jettySize=auto;html=1;exitX=0.64;exitY=0.006;exitDx=0;exitDy=0;entryX=0.602;entryY=1.022;entryDx=0;entryDy=0;entryPerimeter=0;exitPerimeter=0;" edge="1" parent="1" source="cHLyzzWJP-8gGwPEuMyj-6" target="cHLyzzWJP-8gGwPEuMyj-2">
          <mxGeometry relative="1" as="geometry" />
        </mxCell>
        <mxCell id="NI37rxGPZ0Lae22K_Qjg-12" style="edgeStyle=orthogonalEdgeStyle;rounded=0;orthogonalLoop=1;jettySize=auto;html=1;exitX=1;exitY=0.5;exitDx=0;exitDy=0;entryX=0;entryY=0.5;entryDx=0;entryDy=0;" edge="1" parent="1" source="cHLyzzWJP-8gGwPEuMyj-6" target="NI37rxGPZ0Lae22K_Qjg-10">
          <mxGeometry relative="1" as="geometry" />
        </mxCell>
        <mxCell id="cHLyzzWJP-8gGwPEuMyj-6" value="&lt;font color=&quot;#ffffff&quot;&gt;&lt;span style=&quot;font-size: 18px&quot;&gt;资源加载接口&lt;/span&gt;&lt;/font&gt;" style="rounded=1;whiteSpace=wrap;html=1;fillColor=#3399FF;strokeColor=#999999;" parent="1" vertex="1">
          <mxGeometry x="224" y="370" width="140" height="60" as="geometry" />
        </mxCell>
        <mxCell id="NI37rxGPZ0Lae22K_Qjg-9" style="edgeStyle=orthogonalEdgeStyle;rounded=0;orthogonalLoop=1;jettySize=auto;html=1;exitX=1;exitY=0.5;exitDx=0;exitDy=0;entryX=0;entryY=0.5;entryDx=0;entryDy=0;" edge="1" parent="1" source="NI37rxGPZ0Lae22K_Qjg-5" target="NI37rxGPZ0Lae22K_Qjg-8">
          <mxGeometry relative="1" as="geometry" />
        </mxCell>
        <mxCell id="NI37rxGPZ0Lae22K_Qjg-5" value="&lt;font color=&quot;#ffffff&quot;&gt;&lt;font style=&quot;font-size: 18px&quot;&gt;ProfilerSample&lt;/font&gt;&lt;br&gt;&lt;/font&gt;" style="rounded=1;whiteSpace=wrap;html=1;fillColor=#EA6B66;strokeColor=#999999;" vertex="1" parent="1">
          <mxGeometry x="400" y="270" width="140" height="60" as="geometry" />
        </mxCell>
        <mxCell id="NI37rxGPZ0Lae22K_Qjg-8" value="&lt;font color=&quot;#ffffff&quot;&gt;&lt;font style=&quot;font-size: 18px&quot;&gt;EditorWindow&lt;/font&gt;&lt;br&gt;&lt;/font&gt;" style="rounded=1;whiteSpace=wrap;html=1;fillColor=#EA6B66;strokeColor=#999999;" vertex="1" parent="1">
          <mxGeometry x="580" y="270" width="140" height="60" as="geometry" />
        </mxCell>
        <mxCell id="NI37rxGPZ0Lae22K_Qjg-10" value="&lt;span style=&quot;color: rgb(255 , 255 , 255) ; font-size: 18px&quot;&gt;加载&lt;/span&gt;&lt;font color=&quot;#ffffff&quot;&gt;&lt;span style=&quot;font-size: 18px&quot;&gt;战斗资源&lt;/span&gt;&lt;/font&gt;" style="rounded=1;whiteSpace=wrap;html=1;fillColor=#3399FF;strokeColor=#999999;" vertex="1" parent="1">
          <mxGeometry x="400" y="370" width="140" height="60" as="geometry" />
        </mxCell>
        <mxCell id="NI37rxGPZ0Lae22K_Qjg-13" value="&lt;font style=&quot;font-size: 16px&quot; color=&quot;#ae4132&quot;&gt;获得资源加载数据&lt;/font&gt;" style="shape=callout;whiteSpace=wrap;html=1;perimeter=calloutPerimeter;fillColor=#f8cecc;strokeColor=#b85450;size=14;position=0.5;" vertex="1" parent="1">
          <mxGeometry x="400" y="210" width="140" height="60" as="geometry" />
        </mxCell>
        <mxCell id="NI37rxGPZ0Lae22K_Qjg-14" value="&lt;font style=&quot;font-size: 16px&quot; color=&quot;#ae4132&quot;&gt;分析资源加载情况&lt;/font&gt;" style="shape=callout;whiteSpace=wrap;html=1;perimeter=calloutPerimeter;fillColor=#f8cecc;strokeColor=#b85450;size=14;position=0.5;" vertex="1" parent="1">
          <mxGeometry x="580" y="210" width="140" height="60" as="geometry" />
        </mxCell>
        <mxCell id="NI37rxGPZ0Lae22K_Qjg-15" value="&lt;font style=&quot;font-size: 16px&quot; color=&quot;#ae4132&quot;&gt;Hook底层C#接口&lt;/font&gt;" style="shape=callout;whiteSpace=wrap;html=1;perimeter=calloutPerimeter;fillColor=#fad9d5;strokeColor=#ae4132;size=14;position=0.5;" vertex="1" parent="1">
          <mxGeometry x="224" y="210" width="140" height="60" as="geometry" />
        </mxCell>
        <mxCell id="NI37rxGPZ0Lae22K_Qjg-17" value="&lt;font style=&quot;font-size: 16px&quot; color=&quot;#ae4132&quot;&gt;资源加载分析器&lt;/font&gt;" style="shape=callout;whiteSpace=wrap;html=1;perimeter=calloutPerimeter;fillColor=#fad9d5;strokeColor=#ae4132;size=14;position=0.5;" vertex="1" parent="1">
          <mxGeometry x="40" y="210" width="140" height="60" as="geometry" />
        </mxCell>
      </root>
    </mxGraphModel>
  </diagram>
</mxfile>
